HIERARCHY
ROOT hip
{
  OFFSET 76.5323 59.3615 165.373
  CHANNELS 6 Xposition Yposition Zposition Zrotation Xrotation Yrotation
  JOINT abdomen
  {
    OFFSET 0 20.6881 -0.73152
    CHANNELS 3 Zrotation Xrotation Yrotation
    JOINT chest
    {
      OFFSET 0 11.7043 -0.48768
      CHANNELS 3 Zrotation Xrotation Yrotation
      JOINT neck
      {
        OFFSET 0 22.1894 -2.19456
        CHANNELS 3 Zrotation Xrotation Yrotation
        JOINT head
        {
          OFFSET -0.24384 7.07133 1.2192
          CHANNELS 3 Zrotation Xrotation Yrotation
          JOINT leftEye
          {
            OFFSET 4.14528 8.04674 8.04672
            CHANNELS 3 Zrotation Xrotation Yrotation
            End Site
            {
              OFFSET 1 0 0
            }
          }
          JOINT rightEye
          {
            OFFSET -3.6576 8.04674 8.04672
            CHANNELS 3 Zrotation Xrotation Yrotation
            End Site
            {
              OFFSET 1 0 0
            }
          }
        }
      }
      JOINT rCollar
      {
        OFFSET -2.68224 19.2634 -4.8768
        CHANNELS 3 Zrotation Xrotation Yrotation
        JOINT rShldr
        {
          OFFSET -8.77824 -1.95073 1.46304
          CHANNELS 3 Zrotation Xrotation Yrotation
          JOINT rForeArm
          {
            OFFSET -28.1742 -1.7115 0.48768
            CHANNELS 3 Zrotation Xrotation Yrotation
            JOINT rHand
            {
              OFFSET -22.5879 0.773209 7.07136
              CHANNELS 3 Zrotation Xrotation Yrotation
              JOINT rThumb1
              {
                OFFSET -1.2192 -0.487915 3.41376
                CHANNELS 3 Zrotation Xrotation Yrotation
                JOINT rThumb2
                {
                  OFFSET -3.37035 -0.52449 3.41376
                  CHANNELS 3 Zrotation Xrotation Yrotation
                  End Site
                  {
                    OFFSET -1.78271 -1.18214 1.43049
                  }
                }
              }
              JOINT rIndex1
              {
                OFFSET -7.75947 0.938293 5.60832
                CHANNELS 3 Zrotation Xrotation Yrotation
                JOINT rIndex2
                {
                  OFFSET -2.54057 -0.884171 1.56538
                  CHANNELS 3 Zrotation Xrotation Yrotation
                  End Site
                  {
                    OFFSET -1.62519 -0.234802 1.16502
                  }
                }
              }
              JOINT rMid1
              {
                OFFSET -8.24714 1.18213 3.41376
                CHANNELS 3 Zrotation Xrotation Yrotation
                JOINT rMid2
                {
                  OFFSET -3.10165 -0.590103 1.0647
                  CHANNELS 3 Zrotation Xrotation Yrotation
                  End Site
                  {
                    OFFSET -2.48547 -0.328903 0.83742
                  }
                }
              }
              JOINT rRing1
              {
                OFFSET -8.82822 0.546677 1.51678
                CHANNELS 3 Zrotation Xrotation Yrotation
                JOINT rRing2
                {
                  OFFSET -2.60934 -0.819778 -0.0198488
                  CHANNELS 3 Zrotation Xrotation Yrotation
                  End Site
                  {
                    OFFSET -2.33842 -0.294052 0.168128
                  }
                }
              }
              JOINT rPinky1
              {
                OFFSET -8.27202 -0.0477905 -0.4584
                CHANNELS 3 Zrotation Xrotation Yrotation
                JOINT rPinky2
                {
                  OFFSET -1.82734 -0.647385 -0.700984
                  CHANNELS 3 Zrotation Xrotation Yrotation
                  End Site
                  {
                    OFFSET -1.69225 -0.51767 -0.607171
                  }
                }
              }
            }
          }
        }
      }
      JOINT lCollar
      {
        OFFSET 2.68224 19.2634 -4.8768
        CHANNELS 3 Zrotation Xrotation Yrotation
        JOINT lShldr
        {
          OFFSET 8.77824 -1.95073 1.46304
          CHANNELS 3 Zrotation Xrotation Yrotation
          JOINT lForeArm
          {
            OFFSET 28.1742 -1.7115 0.48768
            CHANNELS 3 Zrotation Xrotation Yrotation
            JOINT lHand
            {
              OFFSET 22.5879 0.773209 7.07136
              CHANNELS 3 Zrotation Xrotation Yrotation
              JOINT lThumb1
              {
                OFFSET 1.2192 -0.487915 3.41376
                CHANNELS 3 Zrotation Xrotation Yrotation
                JOINT lThumb2
                {
                  OFFSET 3.37035 -0.52449 3.41376
                  CHANNELS 3 Zrotation Xrotation Yrotation
                  End Site
                  {
                    OFFSET 1.78271 -1.18214 1.43049
                  }
                }
              }
              JOINT lIndex1
              {
                OFFSET 7.75947 0.938293 5.60832
                CHANNELS 3 Zrotation Xrotation Yrotation
                JOINT lIndex2
                {
                  OFFSET 2.54057 -0.884171 1.56538
                  CHANNELS 3 Zrotation Xrotation Yrotation
                  End Site
                  {
                    OFFSET 1.62519 -0.234802 1.16502
                  }
                }
              }
              JOINT lMid1
              {
                OFFSET 8.24714 1.18213 3.41376
                CHANNELS 3 Zrotation Xrotation Yrotation
                JOINT lMid2
                {
                  OFFSET 3.10165 -0.590103 1.0647
                  CHANNELS 3 Zrotation Xrotation Yrotation
                  End Site
                  {
                    OFFSET 2.48547 -0.328903 0.83742
                  }
                }
              }
              JOINT lRing1
              {
                OFFSET 8.82822 0.546677 1.51678
                CHANNELS 3 Zrotation Xrotation Yrotation
                JOINT lRing2
                {
                  OFFSET 2.60934 -0.819778 -0.0198488
                  CHANNELS 3 Zrotation Xrotation Yrotation
                  End Site
                  {
                    OFFSET 2.33842 -0.294052 0.168128
                  }
                }
              }
              JOINT lPinky1
              {
                OFFSET 8.27202 -0.0477905 -0.4584
                CHANNELS 3 Zrotation Xrotation Yrotation
                JOINT lPinky2
                {
                  OFFSET 1.82734 -0.647385 -0.700984
                  CHANNELS 3 Zrotation Xrotation Yrotation
                  End Site
                  {
                    OFFSET 1.69225 -0.51767 -0.607171
                  }
                }
              }
            }
          }
        }
      }
    }
  }
  JOINT rButtock
  {
    OFFSET -8.77824 4.35084 1.2192
    CHANNELS 3 Zrotation Xrotation Yrotation
    JOINT rThigh
    {
      OFFSET 0 -1.70687 -2.19456
      CHANNELS 3 Zrotation Xrotation Yrotation
      JOINT rShin
      {
        OFFSET 0 -36.8199 0.73152
        CHANNELS 3 Zrotation Xrotation Yrotation
        JOINT rFoot
        {
          OFFSET 0.73152 -45.1104 -5.12064
          CHANNELS 3 Zrotation Xrotation Yrotation
          End Site
          {
            OFFSET -1.1221 -3.69964 12.103
          }
        }
      }
    }
  }
  JOINT lButtock
  {
    OFFSET 8.77824 4.35084 1.2192
    CHANNELS 3 Zrotation Xrotation Yrotation
    JOINT lThigh
    {
      OFFSET 0 -1.70687 -2.19456
      CHANNELS 3 Zrotation Xrotation Yrotation
      JOINT lShin
      {
        OFFSET 0 -36.8199 0.73152
        CHANNELS 3 Zrotation Xrotation Yrotation
        JOINT lFoot
        {
          OFFSET -0.73152 -45.1104 -5.12064
          CHANNELS 3 Zrotation Xrotation Yrotation
          End Site
          {
            OFFSET 1.1221 -3.69964 12.103
          }
        }
      }
    }
  }
}
MOTION
Frames:	7
Frame Time:	0.00833333
89.4173 85.3029 -41.7785 -0.763319 -9.39531e-005 0.0138756 1.00446 -0.00484007 0.0278686 0.277299 -0.00537904 0.0480433 4.26811e-015 -7.95139e-016 -1.49089e-016 1.28092e-014 3.18055e-015 -4.36394e-016 -0 0 0 -0 0 0 2.33455e-015 1.43653e-017 9.93923e-017 4.68943e-014 2.42269e-016 -3.97569e-016 7.85001e-013 -2.23633e-013 -2.8625e-014 8.93789e-012 2.77031e-013 -2.95792e-013 2.10861e-011 1.16058e-013 -6.74278e-013 3.64026e-011 2.00375e-013 -1.17124e-012 2.10911e-011 1.1609e-013 -6.87e-013 7.73091 5.47488 0.417314 2.10841e-011 1.15792e-013 -6.74278e-013 2.90554 0.965183 0.102902 2.10934e-011 1.16488e-013 -6.73482e-013 10.2786 0.731801 0.0259123 2.10839e-011 1.18873e-013 -6.64736e-013 2.22167 -0.733487 -0.20892 2.23763e-015 1.68889e-017 -2.98177e-016 4.37817e-014 4.34841e-016 -2.18663e-015 7.80975e-013 2.453e-013 -5.725e-014 8.94996e-012 -1.77962e-013 -2.41722e-013 2.1109e-011 1.43796e-013 -6.74278e-013 3.64651e-011 2.48083e-013 -1.15772e-012 2.11038e-011 1.43523e-013 -6.67916e-013 -7.73091 5.47488 -0.417314 2.11081e-011 1.43721e-013 -6.74278e-013 -2.90554 0.965183 -0.102902 2.10998e-011 1.44019e-013 -6.71892e-013 -10.2786 0.731801 -0.0259123 2.11133e-011 1.44318e-013 -6.83819e-013 -2.22167 -0.733487 0.20892 -2.03217e-016 0 -3.88251e-019 1.24484 -5.50652 -0.110067 0.000299897 4.41967 0.0269481 -0.491959 1.08602 0.0780402 2.03217e-016 0 3.88251e-019 0.290209 -1.91903 0.0122421 0.00910815 -2.07858 0.0751326 0.470799 3.99667 -0.134184 
87.4573 82.9976 -49.8309 -2.49861 2.77174 -1.20937 1.95777 0.952813 1.3498 -0.463183 -0.814766 0.411634 2.84746 -0.320262 3.92051 -5.39091 5.60092 7.82766 -0 0 0 -0 0 0 -5.3289e-014 -1.73955e-014 -6.6443e-014 22.4538 7.98595 -1.05684 -5.16832 -2.57424 7.81212 0.00207215 -1.01338 -0.142342 5.92963e-010 -5.99008e-010 2.04541e-011 1.02489e-009 -1.03626e-009 3.55563e-011 5.92967e-010 -5.99007e-010 2.04422e-011 7.73091 5.47488 0.417314 5.9296e-010 -5.99008e-010 2.04561e-011 2.90554 0.965183 0.102902 5.9297e-010 -5.99007e-010 2.04574e-011 10.2786 0.731801 0.0259123 5.9296e-010 -5.99006e-010 2.04648e-011 2.22167 -0.733487 -0.20892 -5.33547e-014 -1.73941e-014 -6.67839e-014 -21.1544 -1.64059 -2.13618 4.12619 -1.85655 -6.46438 -0.000919043 -0.673342 0.0946086 5.81432e-010 6.66093e-010 -2.59789e-010 1.00474e-009 1.15307e-009 -4.49325e-010 5.81427e-010 6.66094e-010 -2.59783e-010 -7.73091 5.47488 -0.417314 5.81432e-010 6.66094e-010 -2.5979e-010 -2.90554 0.965183 -0.102902 5.81425e-010 6.66094e-010 -2.59788e-010 -10.2786 0.731801 -0.0259123 5.81435e-010 6.66095e-010 -2.598e-010 -2.22167 -0.733487 0.20892 -2.03217e-016 0 -3.88251e-019 2.99471 1.06 -0.34547 0.0772579 8.42228 0.272834 -1.0001 1.85201 1.40085 2.03217e-016 0 3.88251e-019 0.75077 -12.6813 0.660113 0.0045717 9.09631 -0.0804299 0.686752 0.144299 -0.537607 
87.5149 83.0759 -49.5964 -4.21552 5.70183 -2.51723 2.94518 1.96771 2.77233 -1.24721 -1.6596 0.802749 5.89942 -0.685959 8.059 -12.7411 11.1789 16.3245 -0 0 0 -0 0 0 -1.16234e-013 -3.76631e-014 -1.38186e-013 46.5228 16.4106 -2.22955 -9.87904 -5.13847 16.1252 -0.00123681 -2.09452 -0.294353 1.23551e-009 -1.26837e-009 6.65102e-011 2.13549e-009 -2.19416e-009 1.15461e-010 1.23551e-009 -1.26836e-009 6.6499e-011 7.73091 5.47488 0.417314 1.2355e-009 -1.26836e-009 6.65143e-011 2.90554 0.965183 0.102902 1.23551e-009 -1.26836e-009 6.65161e-011 10.2786 0.731801 0.0259123 1.2355e-009 -1.26836e-009 6.65221e-011 2.22167 -0.733487 -0.20892 -1.16265e-013 -3.76628e-014 -1.38466e-013 -43.6556 -3.36595 -4.4191 8.03541 -3.74015 -13.3192 0.000526584 -1.38119 0.19411 1.19796e-009 1.36402e-009 -5.48828e-010 2.0701e-009 2.36123e-009 -9.49211e-010 1.19796e-009 1.36403e-009 -5.48821e-010 -7.73091 5.47488 -0.417314 1.19796e-009 1.36403e-009 -5.4883e-010 -2.90554 0.965183 -0.102902 1.19796e-009 1.36403e-009 -5.48828e-010 -10.2786 0.731801 -0.0259123 1.19797e-009 1.36403e-009 -5.48839e-010 -2.22167 -0.733487 0.20892 -2.03217e-016 0 -3.88251e-019 4.9127 8.03941 -0.583746 0.120764 12.5048 0.540287 -1.57971 2.67716 2.83276 2.03217e-016 0 3.88251e-019 1.54261 -24.0956 1.43303 0.0698399 20.9418 -0.259396 0.851892 -3.92999 -0.984873 
87.5168 83.2925 -49.0933 -5.61121 8.30025 -3.69033 3.7318 2.86194 3.99809 -1.91331 -2.43312 1.13972 8.67287 -0.942817 11.7629 -20.7641 15.5316 24.3119 -0 0 0 -0 0 0 -1.64536e-013 -5.22152e-014 -1.99528e-013 68.3153 23.9237 -3.43523 -13.4506 -7.14967 23.6071 -0.008907 -3.04007 -0.427561 1.73672e-009 -1.79726e-009 6.2711e-011 3.00187e-009 -3.10919e-009 1.09011e-010 1.73672e-009 -1.79725e-009 6.27007e-011 7.73091 5.47488 0.417314 1.73671e-009 -1.79725e-009 6.27169e-011 2.90554 0.965183 0.102902 1.73672e-009 -1.79725e-009 6.27191e-011 10.2786 0.731801 0.0259123 1.73671e-009 -1.79725e-009 6.27238e-011 2.22167 -0.733487 -0.20892 -1.64539e-013 -5.22159e-014 -1.99755e-013 -63.8305 -4.89437 -6.42945 11.144 -5.28664 -19.469 0.00391744 -2.02 0.283983 1.70208e-009 1.99799e-009 -7.78019e-010 2.9413e-009 3.45873e-009 -1.34566e-009 1.70207e-009 1.998e-009 -7.78013e-010 -7.73091 5.47488 -0.417314 1.70208e-009 1.99799e-009 -7.78022e-010 -2.90554 0.965183 -0.102902 1.70207e-009 1.99799e-009 -7.78022e-010 -10.2786 0.731801 -0.0259123 1.70208e-009 1.998e-009 -7.78032e-010 -2.22167 -0.733487 0.20892 -2.03217e-016 0 -3.88251e-019 6.66081 14.1916 -0.842839 0.12403 16.4263 0.788109 -2.12256 3.37719 4.05136 2.03217e-016 0 3.88251e-019 2.53427 -34.1866 2.30621 0.200322 31.4453 -0.455287 0.954788 -7.55835 -1.35689 
87.5144 83.4594 -48.7759 -6.46084 10.0843 -4.49314 4.11471 3.46093 4.72742 -2.30666 -3.02878 1.34048 10.6377 -0.948728 14.3786 -27.2281 18.0247 30.2276 -0 0 0 -0 0 0 -1.76233e-013 -5.24788e-014 -2.34864e-013 83.7452 29.1876 -4.48372 -15.607 -8.32721 28.8474 -0.0163379 -3.64671 -0.513212 1.88459e-009 -1.97499e-009 -6.57262e-011 3.2577e-009 -3.41705e-009 -1.13323e-010 1.88459e-009 -1.97498e-009 -6.57357e-011 7.73091 5.47488 0.417314 1.88458e-009 -1.97498e-009 -6.57198e-011 2.90554 0.965183 0.102902 1.88459e-009 -1.97498e-009 -6.57174e-011 10.2786 0.731801 0.0259123 1.88458e-009 -1.97498e-009 -6.57134e-011 2.22167 -0.733487 -0.20892 -1.76224e-013 -5.24799e-014 -2.35063e-013 -77.9259 -5.95758 -7.73813 13.1121 -6.25973 -23.784 0.00758726 -2.48625 0.349641 1.92514e-009 2.47205e-009 -8.57595e-010 3.32709e-009 4.27959e-009 -1.48352e-009 1.92514e-009 2.47206e-009 -8.57589e-010 -7.73091 5.47488 -0.417314 1.92515e-009 2.47205e-009 -8.57598e-010 -2.90554 0.965183 -0.102902 1.92514e-009 2.47205e-009 -8.57598e-010 -10.2786 0.731801 -0.0259123 1.92515e-009 2.47206e-009 -8.57608e-010 -2.22167 -0.733487 0.20892 -2.03217e-016 0 -3.88251e-019 7.88242 18.2768 -1.12947 0.0967483 19.9462 0.969822 -2.49102 3.77131 4.73194 2.03217e-016 0 3.88251e-019 3.37994 -40.9867 3.10742 0.342891 38.5948 -0.630624 1.0301 -10.0743 -1.52515 
87.5254 83.5931 -48.4214 -6.65098 10.7335 -4.74436 3.95496 3.63559 4.74248 -2.30301 -3.39159 1.3454 11.4115 -0.593657 15.4727 -30.1383 18.7916 32.8144 -0 0 0 -0 0 0 -1.26528e-013 -3.6391e-014 -2.34624e-013 89.9028 31.3617 -5.15381 -16.3657 -8.71371 30.865 -0.0186638 -3.78084 -0.532189 1.43542e-009 -1.62803e-009 -3.92022e-010 2.48207e-009 -2.81785e-009 -6.78439e-010 1.43543e-009 -1.62802e-009 -3.9203e-010 7.73091 5.47488 0.417314 1.43542e-009 -1.62803e-009 -3.92017e-010 2.90554 0.965183 0.102902 1.43543e-009 -1.62802e-009 -3.92015e-010 10.2786 0.731801 0.0259123 1.43542e-009 -1.62802e-009 -3.92011e-010 2.22167 -0.733487 -0.20892 -1.26534e-013 -3.63918e-014 -2.34829e-013 -83.4072 -6.37176 -7.99876 13.8582 -6.62603 -25.5173 0.00990005 -2.74829 0.386566 1.66337e-009 2.72963e-009 -7.75772e-010 2.87552e-009 4.7262e-009 -1.34249e-009 1.66337e-009 2.72964e-009 -7.75766e-010 -7.73091 5.47488 -0.417314 1.66338e-009 2.72964e-009 -7.75774e-010 -2.90554 0.965183 -0.102902 1.66337e-009 2.72964e-009 -7.75775e-010 -10.2786 0.731801 -0.0259123 1.66338e-009 2.72964e-009 -7.75784e-010 -2.22167 -0.733487 0.20892 -2.03217e-016 0 -3.88251e-019 8.27954 19.4853 -1.39528 0.0625721 22.8714 1.04713 -2.60358 3.7484 4.7221 2.03217e-016 0 3.88251e-019 3.57826 -43.2023 3.49821 0.406915 41.0607 -0.7154 1.13178 -11.0426 -1.35861 
87.5601 83.7399 -48.0273 -6.39574 10.5749 -4.59573 3.41452 3.50841 4.24754 -2.01984 -3.5874 1.21044 11.3347 0.016919 15.4811 -30.2102 18.5786 32.9213 -0 0 0 -0 0 0 -3.34498e-014 -8.4498e-015 -2.08932e-013 89.3219 31.3361 -5.47903 -16.2467 -8.63944 30.5607 -0.0165827 -3.57736 -0.503461 5.64687e-010 -9.07867e-010 -8.58532e-010 9.78083e-010 -1.57346e-009 -1.48647e-009 5.6469e-010 -9.07863e-010 -8.58539e-010 7.73091 5.47488 0.417314 5.64689e-010 -9.07865e-010 -8.5853e-010 2.90554 0.965183 0.102902 5.64694e-010 -9.07861e-010 -8.58528e-010 10.2786 0.731801 0.0259123 5.64682e-010 -9.07861e-010 -8.58524e-010 2.22167 -0.733487 -0.20892 -3.34869e-014 -8.4497e-015 -2.09168e-013 -82.7108 -6.32739 -7.50953 13.8103 -6.61166 -25.3944 0.0107394 -2.86268 0.402685 1.05964e-009 2.83224e-009 -5.76375e-010 1.83333e-009 4.90486e-009 -9.98304e-010 1.05965e-009 2.83225e-009 -5.76368e-010 -7.73091 5.47488 -0.417314 1.05964e-009 2.83224e-009 -5.76376e-010 -2.90554 0.965183 -0.102902 1.05964e-009 2.83224e-009 -5.76378e-010 -10.2786 0.731801 -0.0259123 1.05965e-009 2.83224e-009 -5.76386e-010 -2.22167 -0.733487 0.20892 -2.03217e-016 0 -3.88251e-019 8.06115 18.6389 -1.63684 0.0357366 25.3735 1.0456 -2.5321 3.42732 4.21598 2.03217e-016 0 3.88251e-019 3.1805 -42.149 3.49008 0.384977 40.1807 -0.712776 1.25794 -10.9048 -0.952272 
